<svg width="1420" height="996" viewBox="0 0 1420 996" fill="none" xmlns="http://www.w3.org/2000/svg">
<path d="M838.42 576.18C838.42 632.77 827.42 687.68 805.51 739.33C784.44 789.3 754.14 834.15 715.64 872.65C677.14 911.15 632.29 941.36 582.41 962.52C530.76 984.33 475.85 995.43 419.26 995.43C362.67 995.43 307.66 984.34 256.01 962.52C206.04 941.36 161.29 911.15 122.78 872.65C84.28 834.15 53.98 789.3 32.91 739.33C11 687.68 0 632.77 0 576.18V575.71H96.68V576.18C96.68 753.97 241.37 898.66 419.26 898.66C597.15 898.66 741.65 753.97 741.65 576.18V0.390015H838.42V576.18Z" fill="#FFED00"/>
<path d="M1255.03 958.65C1195.46 982.8 1132.43 995.01 1067.83 995.01H1067.74C1003.13 995.01 940.2 982.7 880.54 958.56C818.82 933.58 763.45 896.75 715.99 849.3C714.88 848.19 804.04 73.68 838.39 55.86C852.08 48.76 866.13 42.28 880.53 36.46C940.11 12.21 1003.13 0 1067.74 0C1132.35 0 1195.37 12.21 1254.94 36.45C1316.65 61.43 1372.12 98.26 1419.58 145.71L1419.95 146.08L1419.58 146.36L1351.53 214.41L1351.25 214.04C1313.4 176.29 1269.3 146.92 1221.29 127.07C1173.28 107.21 1121.35 96.77 1067.84 96.77C984.57 96.77 905.19 121.95 838.41 168.72C819.28 182.12 782.77 779.39 784.34 780.96C860.04 856.66 960.73 898.33 1067.75 898.33C1174.77 898.33 1275.46 856.66 1351.16 780.96L1351.53 780.59L1351.81 780.96L1419.96 849.01L1419.59 849.38C1372.14 896.83 1316.76 933.56 1255.05 958.64L1255.03 958.65Z" fill="#FFED00"/>
<path d="M365.1 0V96.79L698.9 96.79V0L365.1 0Z" fill="#FFED00"/>
</svg>
