<svg width="2753" height="276" viewBox="0 0 2753 276" fill="none" xmlns="http://www.w3.org/2000/svg">
<path d="M232.03 159.36C232.03 175.02 228.99 190.21 222.92 204.51C217.09 218.34 208.7 230.75 198.05 241.4C187.39 252.06 174.98 260.42 161.18 266.28C146.88 272.31 131.69 275.39 116.03 275.39C100.37 275.39 85.14 272.32 70.85 266.28C57.02 260.42 44.64 252.06 33.98 241.4C23.32 230.75 14.94 218.33 9.11 204.51C3.05 190.22 0 175.02 0 159.36V159.23H26.75V159.36C26.75 208.56 66.8 248.6 116.03 248.6C165.26 248.6 205.25 208.56 205.25 159.36V0.0100098H232.03V159.36Z" fill="black"/>
<path d="M521.72 84.09C528.92 101.09 532.56 119.1 532.56 137.71C532.56 156.32 528.92 174.32 521.72 191.3C514.78 207.68 504.84 222.41 492.2 235.06C479.56 247.7 464.83 257.64 448.44 264.58C431.46 271.75 413.43 275.39 394.85 275.39C376.27 275.39 358.21 271.75 341.23 264.58C324.85 257.64 310.12 247.7 297.47 235.06C284.83 222.42 274.89 207.69 267.95 191.3C260.78 174.32 257.14 156.29 257.14 137.71C257.14 119.13 260.78 101.09 267.95 84.09C274.89 67.71 284.83 52.98 297.47 40.33C310.11 27.69 324.84 17.7501 341.23 10.8101C358.21 3.64006 376.25 0 394.85 0C413.45 0 431.46 3.64006 448.44 10.8101C464.82 17.7501 479.55 27.6801 492.2 40.3201C504.84 52.9601 514.78 67.69 521.72 84.08V84.09ZM505.78 137.71C505.78 76.54 456.01 26.77 394.86 26.77C333.71 26.77 283.94 76.54 283.94 137.71C283.94 198.88 333.68 248.63 394.86 248.63C456.04 248.63 505.78 198.86 505.78 137.71Z" fill="black"/>
<path d="M722.15 0.0100098H750.71L750.66 0.190063L730.97 53.4401L727.05 63.99L721.17 79.9301L648.85 275.37L620.52 275.4L620.49 275.33L542.32 63.99L538.39 53.4401L518.65 0.0100098H547.19L547.24 0.0799561L634.68 236.53L722.14 0.0100098H722.15Z" fill="black"/>
<path d="M772 275V0H798V275H772Z" fill="black"/>
<path d="M856.65 275.38H828.11L828.16 275.21L847.84 221.96L853.75 206.01L857.64 195.46L929.96 0.0200195H958.29L958.4 0.219971L1036.5 211.41L1040.42 221.96L1060.16 275.39H1031.63L1031.57 275.31L1011.91 222.14H876.35L856.64 275.39L856.65 275.38ZM886.24 195.38H1002.04L944.14 38.87L886.24 195.38Z" fill="black"/>
<path d="M1233.19 264.57C1216.21 271.74 1198.18 275.38 1179.6 275.38L1111.9 275.4H1085.27V0H1179.6C1198.18 0 1216.21 3.64006 1233.19 10.8101C1249.6 17.7501 1264.31 27.6801 1276.98 40.3201C1289.62 52.9601 1299.56 67.69 1306.47 84.08C1313.67 101.09 1317.31 119.1 1317.31 137.7C1317.31 156.3 1313.67 174.31 1306.47 191.29C1299.56 207.68 1289.62 222.41 1276.98 235.05C1264.31 247.69 1249.61 257.63 1233.19 264.56V264.57ZM1112.03 248.63H1179.61C1240.76 248.63 1290.53 198.86 1290.53 137.71C1290.53 76.56 1240.76 26.77 1179.61 26.77H1112.03V248.63Z" fill="black"/>
<path d="M1331.66 275.38H1303.12L1303.18 275.21L1322.86 221.96L1328.77 206.01L1332.66 195.46L1404.98 0.0200195H1433.31L1433.42 0.219971L1511.52 211.41L1515.44 221.96L1535.18 275.39H1506.65L1506.59 275.31L1486.93 222.14H1351.37L1331.66 275.39V275.38ZM1361.25 195.38H1477.05L1419.15 38.87L1361.25 195.38Z" fill="black"/>
<path d="M1867.5 265.33C1851.01 272.01 1833.57 275.39 1815.69 275.39H1815.67C1797.79 275.39 1780.37 271.98 1763.86 265.3C1746.78 258.39 1731.45 248.19 1718.32 235.06C1705.18 221.92 1695 206.57 1688.08 189.49C1681.37 173 1678 155.56 1678 137.68C1678 119.8 1681.38 102.38 1688.06 85.87C1695 68.79 1705.17 53.46 1718.3 40.33C1731.46 27.2 1746.78 17.01 1763.86 10.09C1780.35 3.37997 1797.79 0 1815.67 0C1833.55 0 1850.99 3.37997 1867.48 10.09C1884.56 17 1899.91 27.2 1913.04 40.33L1913.15 40.4399L1913.04 40.51L1894.21 59.35L1894.13 59.24C1883.66 48.79 1871.45 40.66 1858.16 35.17C1844.87 29.67 1830.5 26.79 1815.7 26.79C1786.05 26.79 1758.19 38.33 1737.24 59.27C1716.29 80.22 1704.75 108.09 1704.75 137.71C1704.75 167.33 1716.29 195.2 1737.24 216.15C1758.19 237.09 1786.05 248.63 1815.68 248.63C1845.31 248.63 1873.16 237.09 1894.11 216.15L1894.22 216.04L1894.29 216.15L1913.15 234.98L1913.04 235.09C1899.91 248.22 1884.58 258.39 1867.5 265.33Z" fill="black"/>
<path d="M2183.2 84.1C2190.4 101.1 2194.04 119.11 2194.04 137.72C2194.04 156.33 2190.4 174.33 2183.2 191.31C2176.26 207.69 2166.32 222.42 2153.68 235.07C2141.04 247.71 2126.31 257.65 2109.92 264.59C2092.94 271.76 2074.91 275.4 2056.33 275.4C2037.75 275.4 2019.69 271.76 2002.71 264.59C1986.33 257.65 1971.6 247.71 1958.95 235.07C1946.31 222.43 1936.37 207.7 1929.43 191.31C1922.26 174.33 1918.62 156.3 1918.62 137.72C1918.62 119.14 1922.26 101.1 1929.43 84.1C1936.37 67.72 1946.31 52.99 1958.95 40.34C1971.59 27.7 1986.32 17.7599 2002.71 10.8199C2019.69 3.64995 2037.73 0.0100098 2056.33 0.0100098C2074.93 0.0100098 2092.94 3.64995 2109.92 10.8199C2126.3 17.7599 2141.03 27.69 2153.68 40.33C2166.32 52.97 2176.26 67.7 2183.2 84.09V84.1ZM2167.26 137.72C2167.26 76.55 2117.49 26.78 2056.34 26.78C1995.19 26.78 1945.42 76.55 1945.42 137.72C1945.42 198.89 1995.16 248.64 2056.34 248.64C2117.52 248.64 2167.26 198.87 2167.26 137.72Z" fill="black"/>
<path d="M2390 190.09L2451.69 275.39H2418.63L2418.61 275.34L2361.87 196.9C2358.98 197.18 2356.07 197.31 2352.92 197.31H2246.24V275.38L2246.11 275.4H2219.46V0H2352.92C2379.26 0 2404.03 10.27 2422.66 28.89C2441.29 47.52 2451.55 72.29 2451.55 98.63C2451.55 118.68 2445.57 137.98 2434.26 154.44C2423.24 170.49 2407.94 182.79 2389.99 190.07L2390 190.09ZM2373.56 167.51C2403.72 158.51 2424.77 130.18 2424.77 98.65C2424.77 59.02 2392.54 26.8 2352.92 26.8H2246.23V170.54H2352.92C2353.95 170.54 2354.95 170.52 2355.99 170.46C2358.09 170.39 2360.2 170.2 2362.23 169.92C2366.1 169.43 2369.9 168.63 2373.56 167.52V167.51Z" fill="black"/>
<path d="M2741.57 84.1C2748.77 101.1 2752.41 119.11 2752.41 137.72C2752.41 156.33 2748.77 174.33 2741.57 191.31C2734.63 207.69 2724.69 222.42 2712.05 235.07C2699.41 247.71 2684.68 257.65 2668.29 264.59C2651.31 271.76 2633.28 275.4 2614.7 275.4C2596.12 275.4 2578.06 271.76 2561.08 264.59C2544.7 257.65 2529.97 247.71 2517.32 235.07C2504.68 222.43 2494.74 207.7 2487.8 191.31C2480.63 174.33 2476.99 156.3 2476.99 137.72C2476.99 119.14 2480.63 101.1 2487.8 84.1C2494.74 67.72 2504.68 52.99 2517.32 40.34C2529.96 27.69 2544.69 17.7599 2561.08 10.8199C2578.06 3.64995 2596.1 0.0100098 2614.7 0.0100098C2633.3 0.0100098 2651.31 3.64995 2668.29 10.8199C2684.67 17.7599 2699.4 27.69 2712.05 40.33C2724.69 52.97 2734.63 67.7 2741.57 84.09V84.1ZM2725.63 137.72C2725.63 76.55 2675.86 26.78 2614.71 26.78C2553.56 26.78 2503.79 76.55 2503.79 137.72C2503.79 198.89 2553.53 248.64 2614.71 248.64C2675.89 248.64 2725.63 198.87 2725.63 137.72Z" fill="black"/>
</svg>
